<svg width="82" height="82" viewBox="0 0 82 82" fill="none" xmlns="http://www.w3.org/2000/svg">
<g filter="url(#filter0_d_20_4167)">
<circle cx="41" cy="41" r="29" fill="white"/>
</g>
<path d="M40.9999 50.9168C46.4767 50.9168 50.9166 46.477 50.9166 41.0002C50.9166 35.5233 46.4767 31.0835 40.9999 31.0835C35.5231 31.0835 31.0833 35.5233 31.0833 41.0002C31.0833 46.477 35.5231 50.9168 40.9999 50.9168Z" stroke="#37474F" stroke-width="2" stroke-linecap="round" stroke-linejoin="round"/>
<path d="M41.0001 43.8332C42.5649 43.8332 43.8334 42.5646 43.8334 40.9998C43.8334 39.435 42.5649 38.1665 41.0001 38.1665C39.4353 38.1665 38.1667 39.435 38.1667 40.9998C38.1667 42.5646 39.4353 43.8332 41.0001 43.8332Z" fill="#37474F" stroke="#37474F" stroke-width="2" stroke-linecap="round" stroke-linejoin="round"/>
<path d="M41 53.7502V48.0835" stroke="#37474F" stroke-width="2" stroke-linecap="round" stroke-linejoin="round"/>
<path d="M41 28.25V33.9167" stroke="#37474F" stroke-width="2" stroke-linecap="round" stroke-linejoin="round"/>
<path d="M33.9167 41H28.25" stroke="#37474F" stroke-width="2" stroke-linecap="round" stroke-linejoin="round"/>
<path d="M53.7499 41H48.0833" stroke="#37474F" stroke-width="2" stroke-linecap="round" stroke-linejoin="round"/>
<defs>
<filter id="filter0_d_20_4167" x="0" y="0" width="82" height="82" filterUnits="userSpaceOnUse" color-interpolation-filters="sRGB">
<feFlood flood-opacity="0" result="BackgroundImageFix"/>
<feColorMatrix in="SourceAlpha" type="matrix" values="0 0 0 0 0 0 0 0 0 0 0 0 0 0 0 0 0 0 127 0" result="hardAlpha"/>
<feOffset/>
<feGaussianBlur stdDeviation="6"/>
<feComposite in2="hardAlpha" operator="out"/>
<feColorMatrix type="matrix" values="0 0 0 0 0 0 0 0 0 0 0 0 0 0 0 0 0 0 0.2 0"/>
<feBlend mode="normal" in2="BackgroundImageFix" result="effect1_dropShadow_20_4167"/>
<feBlend mode="normal" in="SourceGraphic" in2="effect1_dropShadow_20_4167" result="shape"/>
</filter>
</defs>
</svg>
